# xmcd
#
# Track frame offsets:
# 150
# 12460
# 26908
# 39943
# 51577
# 64373
# 77543
# 89169
# 101361
# 115630
# 128879
# 139976
# 150411
# 164442
# 177291
# 190882
# 205476
# 219522
# 229670
# 237129
# 250475
#
# Disc length: 3483 seconds
#
# Revision: 0
# Processed by: cddbd v1.5.1PL0 Copyright (c) Steve Scherf et al.
# Submitted via: plextools 2.18
#
DISCID=2b0d9915
DTITLE=Sister Rosetta Tharpe - Complete/Integrale, Vol.3 (1947-51), CD2
DYEAR=2003
DGENRE=Gospel
TTITLE0=Sister Rosetta Tharpe - You Gotta Move
TTITLE1=Sister Rosetta Tharpe - When I Take My Vacation In Heaven
TTITLE2=Sister Rosetta Tharpe - Jesus Remembers
TTITLE3=Sister Rosetta Tharpe - Run To Jesus Everyone
TTITLE4=Sister Rosetta Tharpe - Is Everybody Happy
TTITLE5=Sister Rosetta Tharpe - I Shall Know Him
TTITLE6=Sister Rosetta Tharpe - There's A Highway To Heaven
TTITLE7=Sister Rosetta Tharpe - I'm Bound For Higher Grounds
TTITLE8=Sister Rosetta Tharpe - I Was Healed
TTITLE9=Sister Rosetta Tharpe - Use Me Lord
TTITLE10=Sister Rosetta Tharpe - Somebody Needs Jesus
TTITLE11=Sister Rosetta Tharpe - Sin Is To Blame
TTITLE12=Sister Rosetta Tharpe - I Thank God For My Song
TTITLE13=Sister Rosetta Tharpe - Throw Out The Life Line
TTITLE14=Sister Rosetta Tharpe - Blessed Assurance
TTITLE15=Sister Rosetta Tharpe - Rock Of Ages
TTITLE16=Sister Rosetta Tharpe - In The Garden
TTITLE17=Sister Rosetta Tharpe - Rock Me
TTITLE18=Sister Rosetta Tharpe - That's All
TTITLE19=Sister Rosetta Tharpe - Saviour Don't Pass Me By
TTITLE20=Sister Rosetta Tharpe - Didn't It Rain Children
EXTD=Fremeaux and Associes (France) FA 1303/2, 2003
EXTT0=
EXTT1=
EXTT2=
EXTT3=
EXTT4=
EXTT5=
EXTT6=
EXTT7=
EXTT8=
EXTT9=
EXTT10=
EXTT11=
EXTT12=
EXTT13=
EXTT14=
EXTT15=
EXTT16=
EXTT17=
EXTT18=
EXTT19=
EXTT20=
PLAYORDER=
